<svg width="100" height="103" xmlns="http://www.w3.org/2000/svg">
  <metadata id="metadata8">image/svg+xml</metadata>
  <defs>
    <clipPath id="clipPath16" clipPathUnits="userSpaceOnUse">
      <path id="path18" d="m0,109.333l124.667,0l0,-109.333l-124.667,0l0,109.333z"/>
    </clipPath>
  </defs>
  <g>
    <title>background</title>
    <rect x="-1" y="-1" height="102" width="122" id="canvas_background" fill="none"/>
  </g>
  <g>
    <title>Layer 1</title>
    <g transform="translate(-40)">
      <g transform="matrix(1.3333333,0,0,-1.3333333,0,155.77733) " id="g10">
        <g id="g12">
          <g clip-path="url(#clipPath16)" id="g14">
            <g id="g48">
              <path
                id="path50"
                d="m39.1873,80.0715l1.026,-2.853c0,0 20.801,7.479 21.78,7.831c0.979,-0.352 21.779,-7.831 21.779,-7.831l1.026,2.853l-22.805,8.2l-22.806,-8.2zm-0.793,-33.156l47.203,0l0,1.668l-47.203,0l0,-1.668zm1.306,2.918l44.584,0l0,1.668l-44.584,0l0,-1.668zm6.954,23.226c0.52,0 0.942,0.423 0.942,0.946c0,0.255 -0.102,0.487 -0.267,0.657l3.387,0c-0.165,-0.17 -0.268,-0.402 -0.268,-0.657c0,-0.523 0.424,-0.946 0.945,-0.946c0.155,0 0.299,0.042 0.429,0.108l-0.41,-16.975l-4.776,0l-0.412,16.975c0.13,-0.066 0.275,-0.108 0.43,-0.108m8.639,0c0.521,0 0.945,0.423 0.945,0.946c0,0.255 -0.103,0.487 -0.268,0.657l3.403,0c-0.165,-0.17 -0.267,-0.402 -0.267,-0.657c0,-0.523 0.422,-0.946 0.942,-0.946c0.153,0 0.296,0.04 0.424,0.105l-0.412,-16.972l-4.778,0l-0.414,16.973c0.128,-0.065 0.271,-0.106 0.425,-0.106m8.622,0c0.521,0 0.945,0.423 0.945,0.946c0,0.255 -0.102,0.487 -0.268,0.657l3.406,0c-0.165,-0.17 -0.269,-0.402 -0.269,-0.657c0,-0.523 0.423,-0.946 0.944,-0.946c0.157,0 0.301,0.042 0.431,0.109l-0.412,-16.976l-4.763,0l-0.412,16.959c0.122,-0.057 0.255,-0.092 0.398,-0.092m8.656,0c0.522,0 0.948,0.423 0.948,0.946c0,0.255 -0.103,0.487 -0.27,0.657l3.403,0c-0.165,-0.17 -0.268,-0.402 -0.268,-0.657c0,-0.523 0.423,-0.946 0.943,-0.946c0.15,0 0.29,0.038 0.414,0.1l-0.413,-16.967l-4.763,0l-0.413,16.971c0.127,-0.064 0.268,-0.104 0.419,-0.104m-31.365,-16.867l0,-2.779l41.568,0l0,2.779l-1.575,0l-0.417,16.983c0.132,-0.071 0.281,-0.116 0.442,-0.116c0.522,0 0.947,0.423 0.947,0.946c0,0.255 -0.104,0.487 -0.27,0.657l0.761,0l0,1.668l-41.34,0l0,-1.668l0.757,0c-0.165,-0.17 -0.268,-0.402 -0.268,-0.657c0,-0.523 0.424,-0.946 0.946,-0.946c0.153,0 0.296,0.041 0.424,0.106l-0.412,-16.973l-1.563,0zm46.238,-12.81l-50.903,0l0,48.108l6.902,0l0,3.706l5.75,0l0.43,0.791c3.027,5.568 8.397,6.737 12.37,6.737c3.972,0 9.341,-1.169 12.369,-6.737l0.43,-0.791l5.751,0l0,-3.706l6.901,0l0,-48.108zm-3.871,51.14l0,3.705l-7.051,0c-3.001,4.846 -8.106,7.529 -14.529,7.529c-6.424,0 -11.529,-2.683 -14.53,-7.529l-7.052,0l0,-3.705l-6.902,0l0,-54.172l56.967,0l0,54.172l-6.903,0z"
                fill-rule="nonzero"
                fill="#0275d8"/>
            </g>
          </g>
        </g>
      </g>
    </g>
  </g>
</svg>
